<mxfile host="app.diagrams.net" agent="Mozilla/5.0 (Windows NT 10.0; Win64; x64) AppleWebKit/537.36 (KHTML, like Gecko) Chrome/131.0.0.0 Safari/537.36" version="25.0.3">
  <diagram id="prtHgNgQTEPvFCAcTncT" name="Page-1">
    <mxGraphModel dx="2074" dy="1098" grid="1" gridSize="10" guides="1" tooltips="1" connect="1" arrows="1" fold="1" page="1" pageScale="1" pageWidth="827" pageHeight="1169" math="0" shadow="0">
      <root>
        <mxCell id="0" />
        <mxCell id="1" parent="0" />
        <mxCell id="dNxyNK7c78bLwvsdeMH5-19" value="Pool" style="swimlane;html=1;childLayout=stackLayout;resizeParent=1;resizeParentMax=0;horizontal=0;startSize=20;horizontalStack=0;" parent="1" vertex="1">
          <mxGeometry x="120" y="116" width="1060" height="470" as="geometry" />
        </mxCell>
        <mxCell id="dNxyNK7c78bLwvsdeMH5-20" value="master (R4)" style="swimlane;html=1;startSize=20;horizontal=0;" parent="dNxyNK7c78bLwvsdeMH5-19" vertex="1">
          <mxGeometry x="20" width="1040" height="230" as="geometry" />
        </mxCell>
        <mxCell id="JO76yRx2_LEAyGyFghfK-22" value="" style="edgeStyle=orthogonalEdgeStyle;rounded=0;orthogonalLoop=1;jettySize=auto;html=1;" edge="1" parent="dNxyNK7c78bLwvsdeMH5-20" source="dNxyNK7c78bLwvsdeMH5-23" target="JO76yRx2_LEAyGyFghfK-21">
          <mxGeometry relative="1" as="geometry" />
        </mxCell>
        <mxCell id="dNxyNK7c78bLwvsdeMH5-23" value="" style="ellipse;whiteSpace=wrap;html=1;" parent="dNxyNK7c78bLwvsdeMH5-20" vertex="1">
          <mxGeometry x="40" y="40" width="40" height="40" as="geometry" />
        </mxCell>
        <mxCell id="JO76yRx2_LEAyGyFghfK-2" style="edgeStyle=orthogonalEdgeStyle;rounded=0;orthogonalLoop=1;jettySize=auto;html=1;exitX=1;exitY=0.5;exitDx=0;exitDy=0;entryX=0;entryY=0.5;entryDx=0;entryDy=0;" edge="1" parent="dNxyNK7c78bLwvsdeMH5-20" source="dNxyNK7c78bLwvsdeMH5-24" target="dNxyNK7c78bLwvsdeMH5-30">
          <mxGeometry relative="1" as="geometry" />
        </mxCell>
        <mxCell id="dNxyNK7c78bLwvsdeMH5-24" value="Modify Source" style="rounded=0;whiteSpace=wrap;html=1;fontFamily=Helvetica;fontSize=12;fontColor=#000000;align=center;" parent="dNxyNK7c78bLwvsdeMH5-20" vertex="1">
          <mxGeometry x="250" y="30" width="80" height="60" as="geometry" />
        </mxCell>
        <mxCell id="JO76yRx2_LEAyGyFghfK-24" value="" style="edgeStyle=orthogonalEdgeStyle;rounded=0;orthogonalLoop=1;jettySize=auto;html=1;" edge="1" parent="dNxyNK7c78bLwvsdeMH5-20" source="dNxyNK7c78bLwvsdeMH5-30" target="JO76yRx2_LEAyGyFghfK-16">
          <mxGeometry relative="1" as="geometry" />
        </mxCell>
        <mxCell id="dNxyNK7c78bLwvsdeMH5-30" value="Pre-Process (for R4)" style="rounded=0;whiteSpace=wrap;html=1;fontFamily=Helvetica;fontSize=12;fontColor=#000000;align=center;" parent="dNxyNK7c78bLwvsdeMH5-20" vertex="1">
          <mxGeometry x="370" y="30" width="80" height="60" as="geometry" />
        </mxCell>
        <mxCell id="JO76yRx2_LEAyGyFghfK-28" value="" style="edgeStyle=orthogonalEdgeStyle;rounded=0;orthogonalLoop=1;jettySize=auto;html=1;" edge="1" parent="dNxyNK7c78bLwvsdeMH5-20" source="JO76yRx2_LEAyGyFghfK-4" target="dNxyNK7c78bLwvsdeMH5-32">
          <mxGeometry relative="1" as="geometry" />
        </mxCell>
        <mxCell id="JO76yRx2_LEAyGyFghfK-4" value="Commit and Push" style="rounded=0;whiteSpace=wrap;html=1;fontFamily=Helvetica;fontSize=12;fontColor=#000000;align=center;" vertex="1" parent="dNxyNK7c78bLwvsdeMH5-20">
          <mxGeometry x="737" y="30" width="80" height="60" as="geometry" />
        </mxCell>
        <mxCell id="JO76yRx2_LEAyGyFghfK-20" value="" style="edgeStyle=orthogonalEdgeStyle;rounded=0;orthogonalLoop=1;jettySize=auto;html=1;" edge="1" parent="dNxyNK7c78bLwvsdeMH5-20" source="dNxyNK7c78bLwvsdeMH5-28" target="JO76yRx2_LEAyGyFghfK-17">
          <mxGeometry relative="1" as="geometry" />
        </mxCell>
        <mxCell id="JO76yRx2_LEAyGyFghfK-51" value="KO" style="edgeLabel;html=1;align=center;verticalAlign=middle;resizable=0;points=[];" vertex="1" connectable="0" parent="JO76yRx2_LEAyGyFghfK-20">
          <mxGeometry x="-0.3333" relative="1" as="geometry">
            <mxPoint as="offset" />
          </mxGeometry>
        </mxCell>
        <mxCell id="JO76yRx2_LEAyGyFghfK-26" value="" style="edgeStyle=orthogonalEdgeStyle;rounded=0;orthogonalLoop=1;jettySize=auto;html=1;" edge="1" parent="dNxyNK7c78bLwvsdeMH5-20" source="dNxyNK7c78bLwvsdeMH5-28" target="JO76yRx2_LEAyGyFghfK-4">
          <mxGeometry relative="1" as="geometry" />
        </mxCell>
        <mxCell id="JO76yRx2_LEAyGyFghfK-50" value="OK" style="edgeLabel;html=1;align=center;verticalAlign=middle;resizable=0;points=[];" vertex="1" connectable="0" parent="JO76yRx2_LEAyGyFghfK-26">
          <mxGeometry x="-0.272" relative="1" as="geometry">
            <mxPoint as="offset" />
          </mxGeometry>
        </mxCell>
        <mxCell id="dNxyNK7c78bLwvsdeMH5-28" value="" style="rhombus;whiteSpace=wrap;html=1;fontFamily=Helvetica;fontSize=12;fontColor=#000000;align=center;" parent="dNxyNK7c78bLwvsdeMH5-20" vertex="1">
          <mxGeometry x="610" y="40" width="40" height="40" as="geometry" />
        </mxCell>
        <mxCell id="JO76yRx2_LEAyGyFghfK-9" style="edgeStyle=orthogonalEdgeStyle;rounded=0;orthogonalLoop=1;jettySize=auto;html=1;exitX=0.5;exitY=1;exitDx=0;exitDy=0;" edge="1" parent="dNxyNK7c78bLwvsdeMH5-20" source="dNxyNK7c78bLwvsdeMH5-28" target="dNxyNK7c78bLwvsdeMH5-28">
          <mxGeometry relative="1" as="geometry" />
        </mxCell>
        <mxCell id="JO76yRx2_LEAyGyFghfK-19" style="edgeStyle=orthogonalEdgeStyle;rounded=0;orthogonalLoop=1;jettySize=auto;html=1;entryX=0.5;entryY=1;entryDx=0;entryDy=0;" edge="1" parent="dNxyNK7c78bLwvsdeMH5-20" source="JO76yRx2_LEAyGyFghfK-17" target="dNxyNK7c78bLwvsdeMH5-24">
          <mxGeometry relative="1" as="geometry" />
        </mxCell>
        <mxCell id="JO76yRx2_LEAyGyFghfK-17" value="Fix Source" style="rounded=0;whiteSpace=wrap;html=1;fontFamily=Helvetica;fontSize=12;fontColor=#000000;align=center;" vertex="1" parent="dNxyNK7c78bLwvsdeMH5-20">
          <mxGeometry x="590" y="124" width="80" height="60" as="geometry" />
        </mxCell>
        <mxCell id="JO76yRx2_LEAyGyFghfK-25" value="" style="edgeStyle=orthogonalEdgeStyle;rounded=0;orthogonalLoop=1;jettySize=auto;html=1;" edge="1" parent="dNxyNK7c78bLwvsdeMH5-20" source="JO76yRx2_LEAyGyFghfK-16" target="dNxyNK7c78bLwvsdeMH5-28">
          <mxGeometry relative="1" as="geometry" />
        </mxCell>
        <mxCell id="JO76yRx2_LEAyGyFghfK-16" value="Build" style="rounded=0;whiteSpace=wrap;html=1;fontFamily=Helvetica;fontSize=12;fontColor=#000000;align=center;" vertex="1" parent="dNxyNK7c78bLwvsdeMH5-20">
          <mxGeometry x="490" y="30" width="80" height="60" as="geometry" />
        </mxCell>
        <mxCell id="JO76yRx2_LEAyGyFghfK-23" value="" style="edgeStyle=orthogonalEdgeStyle;rounded=0;orthogonalLoop=1;jettySize=auto;html=1;" edge="1" parent="dNxyNK7c78bLwvsdeMH5-20" source="JO76yRx2_LEAyGyFghfK-21" target="dNxyNK7c78bLwvsdeMH5-24">
          <mxGeometry relative="1" as="geometry" />
        </mxCell>
        <mxCell id="JO76yRx2_LEAyGyFghfK-21" value="Pull" style="rounded=0;whiteSpace=wrap;html=1;fontFamily=Helvetica;fontSize=12;fontColor=#000000;align=center;" vertex="1" parent="dNxyNK7c78bLwvsdeMH5-20">
          <mxGeometry x="120" y="30" width="80" height="60" as="geometry" />
        </mxCell>
        <mxCell id="dNxyNK7c78bLwvsdeMH5-32" value="" style="ellipse;whiteSpace=wrap;html=1;" parent="dNxyNK7c78bLwvsdeMH5-20" vertex="1">
          <mxGeometry x="870" y="40" width="40" height="40" as="geometry" />
        </mxCell>
        <mxCell id="dNxyNK7c78bLwvsdeMH5-21" value="master-r5 (R5)" style="swimlane;html=1;startSize=20;horizontal=0;" parent="dNxyNK7c78bLwvsdeMH5-19" vertex="1">
          <mxGeometry x="20" y="230" width="1040" height="240" as="geometry" />
        </mxCell>
        <mxCell id="JO76yRx2_LEAyGyFghfK-29" style="edgeStyle=orthogonalEdgeStyle;rounded=0;orthogonalLoop=1;jettySize=auto;html=1;exitX=1;exitY=0.5;exitDx=0;exitDy=0;entryX=0;entryY=0.5;entryDx=0;entryDy=0;" edge="1" parent="dNxyNK7c78bLwvsdeMH5-21" source="JO76yRx2_LEAyGyFghfK-30" target="JO76yRx2_LEAyGyFghfK-32">
          <mxGeometry relative="1" as="geometry" />
        </mxCell>
        <mxCell id="JO76yRx2_LEAyGyFghfK-30" value="Modify Source" style="rounded=0;whiteSpace=wrap;html=1;fontFamily=Helvetica;fontSize=12;fontColor=#000000;align=center;" vertex="1" parent="dNxyNK7c78bLwvsdeMH5-21">
          <mxGeometry x="380" y="43" width="80" height="60" as="geometry" />
        </mxCell>
        <mxCell id="JO76yRx2_LEAyGyFghfK-31" value="" style="edgeStyle=orthogonalEdgeStyle;rounded=0;orthogonalLoop=1;jettySize=auto;html=1;" edge="1" parent="dNxyNK7c78bLwvsdeMH5-21" source="JO76yRx2_LEAyGyFghfK-32" target="JO76yRx2_LEAyGyFghfK-42">
          <mxGeometry relative="1" as="geometry" />
        </mxCell>
        <mxCell id="JO76yRx2_LEAyGyFghfK-32" value="Pre-Process (for R5)" style="rounded=0;whiteSpace=wrap;html=1;fontFamily=Helvetica;fontSize=12;fontColor=#000000;align=center;" vertex="1" parent="dNxyNK7c78bLwvsdeMH5-21">
          <mxGeometry x="500" y="43" width="80" height="60" as="geometry" />
        </mxCell>
        <mxCell id="JO76yRx2_LEAyGyFghfK-33" value="" style="edgeStyle=orthogonalEdgeStyle;rounded=0;orthogonalLoop=1;jettySize=auto;html=1;" edge="1" parent="dNxyNK7c78bLwvsdeMH5-21" source="JO76yRx2_LEAyGyFghfK-34" target="JO76yRx2_LEAyGyFghfK-45">
          <mxGeometry relative="1" as="geometry" />
        </mxCell>
        <mxCell id="JO76yRx2_LEAyGyFghfK-34" value="Commit and Push" style="rounded=0;whiteSpace=wrap;html=1;fontFamily=Helvetica;fontSize=12;fontColor=#000000;align=center;" vertex="1" parent="dNxyNK7c78bLwvsdeMH5-21">
          <mxGeometry x="840" y="43" width="80" height="60" as="geometry" />
        </mxCell>
        <mxCell id="JO76yRx2_LEAyGyFghfK-35" value="" style="edgeStyle=orthogonalEdgeStyle;rounded=0;orthogonalLoop=1;jettySize=auto;html=1;" edge="1" parent="dNxyNK7c78bLwvsdeMH5-21" source="JO76yRx2_LEAyGyFghfK-37" target="JO76yRx2_LEAyGyFghfK-40">
          <mxGeometry relative="1" as="geometry" />
        </mxCell>
        <mxCell id="JO76yRx2_LEAyGyFghfK-53" value="KO" style="edgeLabel;html=1;align=center;verticalAlign=middle;resizable=0;points=[];" vertex="1" connectable="0" parent="JO76yRx2_LEAyGyFghfK-35">
          <mxGeometry x="-0.1515" relative="1" as="geometry">
            <mxPoint as="offset" />
          </mxGeometry>
        </mxCell>
        <mxCell id="JO76yRx2_LEAyGyFghfK-36" value="" style="edgeStyle=orthogonalEdgeStyle;rounded=0;orthogonalLoop=1;jettySize=auto;html=1;" edge="1" parent="dNxyNK7c78bLwvsdeMH5-21" source="JO76yRx2_LEAyGyFghfK-37" target="JO76yRx2_LEAyGyFghfK-34">
          <mxGeometry relative="1" as="geometry" />
        </mxCell>
        <mxCell id="JO76yRx2_LEAyGyFghfK-52" value="OK" style="edgeLabel;html=1;align=center;verticalAlign=middle;resizable=0;points=[];" vertex="1" connectable="0" parent="JO76yRx2_LEAyGyFghfK-36">
          <mxGeometry x="-0.3111" y="2" relative="1" as="geometry">
            <mxPoint as="offset" />
          </mxGeometry>
        </mxCell>
        <mxCell id="JO76yRx2_LEAyGyFghfK-37" value="" style="rhombus;whiteSpace=wrap;html=1;fontFamily=Helvetica;fontSize=12;fontColor=#000000;align=center;" vertex="1" parent="dNxyNK7c78bLwvsdeMH5-21">
          <mxGeometry x="740" y="53" width="40" height="40" as="geometry" />
        </mxCell>
        <mxCell id="JO76yRx2_LEAyGyFghfK-38" style="edgeStyle=orthogonalEdgeStyle;rounded=0;orthogonalLoop=1;jettySize=auto;html=1;exitX=0.5;exitY=1;exitDx=0;exitDy=0;" edge="1" parent="dNxyNK7c78bLwvsdeMH5-21" source="JO76yRx2_LEAyGyFghfK-37" target="JO76yRx2_LEAyGyFghfK-37">
          <mxGeometry relative="1" as="geometry" />
        </mxCell>
        <mxCell id="JO76yRx2_LEAyGyFghfK-39" style="edgeStyle=orthogonalEdgeStyle;rounded=0;orthogonalLoop=1;jettySize=auto;html=1;entryX=0.5;entryY=1;entryDx=0;entryDy=0;" edge="1" parent="dNxyNK7c78bLwvsdeMH5-21" source="JO76yRx2_LEAyGyFghfK-40" target="JO76yRx2_LEAyGyFghfK-30">
          <mxGeometry relative="1" as="geometry" />
        </mxCell>
        <mxCell id="JO76yRx2_LEAyGyFghfK-40" value="Fix Source" style="rounded=0;whiteSpace=wrap;html=1;fontFamily=Helvetica;fontSize=12;fontColor=#000000;align=center;" vertex="1" parent="dNxyNK7c78bLwvsdeMH5-21">
          <mxGeometry x="720" y="137" width="80" height="60" as="geometry" />
        </mxCell>
        <mxCell id="JO76yRx2_LEAyGyFghfK-41" value="" style="edgeStyle=orthogonalEdgeStyle;rounded=0;orthogonalLoop=1;jettySize=auto;html=1;" edge="1" parent="dNxyNK7c78bLwvsdeMH5-21" source="JO76yRx2_LEAyGyFghfK-42" target="JO76yRx2_LEAyGyFghfK-37">
          <mxGeometry relative="1" as="geometry" />
        </mxCell>
        <mxCell id="JO76yRx2_LEAyGyFghfK-42" value="Build" style="rounded=0;whiteSpace=wrap;html=1;fontFamily=Helvetica;fontSize=12;fontColor=#000000;align=center;" vertex="1" parent="dNxyNK7c78bLwvsdeMH5-21">
          <mxGeometry x="620" y="43" width="80" height="60" as="geometry" />
        </mxCell>
        <mxCell id="JO76yRx2_LEAyGyFghfK-43" value="" style="edgeStyle=orthogonalEdgeStyle;rounded=0;orthogonalLoop=1;jettySize=auto;html=1;" edge="1" parent="dNxyNK7c78bLwvsdeMH5-21" source="JO76yRx2_LEAyGyFghfK-44" target="JO76yRx2_LEAyGyFghfK-30">
          <mxGeometry relative="1" as="geometry" />
        </mxCell>
        <mxCell id="JO76yRx2_LEAyGyFghfK-44" value="Pull" style="rounded=0;whiteSpace=wrap;html=1;fontFamily=Helvetica;fontSize=12;fontColor=#000000;align=center;" vertex="1" parent="dNxyNK7c78bLwvsdeMH5-21">
          <mxGeometry x="250" y="43" width="80" height="60" as="geometry" />
        </mxCell>
        <mxCell id="JO76yRx2_LEAyGyFghfK-45" value="" style="ellipse;whiteSpace=wrap;html=1;" vertex="1" parent="dNxyNK7c78bLwvsdeMH5-21">
          <mxGeometry x="970" y="53" width="40" height="40" as="geometry" />
        </mxCell>
        <mxCell id="JO76yRx2_LEAyGyFghfK-49" value="" style="edgeStyle=orthogonalEdgeStyle;rounded=0;orthogonalLoop=1;jettySize=auto;html=1;" edge="1" parent="dNxyNK7c78bLwvsdeMH5-21" source="JO76yRx2_LEAyGyFghfK-46" target="JO76yRx2_LEAyGyFghfK-44">
          <mxGeometry relative="1" as="geometry" />
        </mxCell>
        <mxCell id="JO76yRx2_LEAyGyFghfK-46" value="Merge from R4" style="rounded=0;whiteSpace=wrap;html=1;fontFamily=Helvetica;fontSize=12;fontColor=#000000;align=center;" vertex="1" parent="dNxyNK7c78bLwvsdeMH5-21">
          <mxGeometry x="120" y="43" width="80" height="60" as="geometry" />
        </mxCell>
        <mxCell id="JO76yRx2_LEAyGyFghfK-48" style="edgeStyle=orthogonalEdgeStyle;rounded=0;orthogonalLoop=1;jettySize=auto;html=1;dashed=1;" edge="1" parent="dNxyNK7c78bLwvsdeMH5-19" source="JO76yRx2_LEAyGyFghfK-4" target="JO76yRx2_LEAyGyFghfK-46">
          <mxGeometry relative="1" as="geometry">
            <Array as="points">
              <mxPoint x="797" y="204" />
              <mxPoint x="180" y="204" />
            </Array>
          </mxGeometry>
        </mxCell>
      </root>
    </mxGraphModel>
  </diagram>
</mxfile>
